<svg width="90" height="40" viewBox="0 0 90 40" fill="none" xmlns="http://www.w3.org/2000/svg">
    <path fill-rule="evenodd" clip-rule="evenodd"
          d="M3.87358 11.6689C4.18668 11.5588 4.45317 11.4047 4.67394 11.2068C4.89425 11.0089 5.07206 10.7822 5.20736 10.5267H5.26723V11.6762H7.41645V6.08609C7.41645 5.60523 7.32229 5.187 7.13442 4.83139C6.94656 4.47578 6.69014 4.18415 6.36424 3.95607C6.03879 3.72844 5.66444 3.55795 5.24118 3.44505C4.81792 3.33261 4.36586 3.27593 3.88501 3.27593C3.23366 3.27593 2.65636 3.37146 2.15311 3.56161C1.64941 3.75221 1.2362 4.02646 0.913043 4.38436C0.589884 4.74271 0.37094 5.17466 0.255755 5.68065L2.32224 5.92108C2.37709 5.74053 2.46987 5.57552 2.60014 5.42514C2.73041 5.27476 2.90182 5.15729 3.11482 5.07181C3.32736 4.9868 3.57922 4.94429 3.86992 4.94429C4.14509 4.94429 4.38095 4.9868 4.57612 5.07181C4.7713 5.15729 4.92031 5.27979 5.02315 5.44022C5.12599 5.60066 5.17719 5.79584 5.17719 6.02621V6.06369C5.17719 6.24424 5.10954 6.37908 4.97424 6.46958C4.83894 6.55963 4.62503 6.6259 4.33204 6.66841C4.03905 6.71138 3.64687 6.75983 3.15596 6.81514C2.74001 6.85536 2.34463 6.92392 1.96891 7.02174C1.59318 7.11955 1.25768 7.26216 0.961951 7.45003C0.666217 7.63789 0.432189 7.887 0.259411 8.19782C0.0866332 8.50818 0.000244141 8.89396 0.000244141 9.3547C0.000244141 9.90092 0.121829 10.358 0.364541 10.726C0.60771 11.0939 0.939554 11.3709 1.36007 11.556C1.78105 11.7416 2.25687 11.8344 2.788 11.8344C3.19847 11.8344 3.56048 11.7791 3.87358 11.6689ZM2.76926 10.1473C2.5814 10.0751 2.43331 9.96719 2.32589 9.82413C2.21802 9.68151 2.16408 9.50508 2.16408 9.29482C2.16408 9.06902 2.22168 8.8839 2.33686 8.73855C2.45205 8.5932 2.61386 8.4771 2.82183 8.38934C3.02935 8.30158 3.26886 8.23758 3.53945 8.19782C3.67932 8.17771 3.8297 8.15394 3.99014 8.12605L4.47099 8.04378C4.63097 8.0159 4.77541 7.98344 4.90294 7.94596C5.03092 7.90848 5.12691 7.8646 5.19227 7.81432V8.70107C5.19227 8.99177 5.11822 9.25597 4.97058 9.49365C4.82295 9.73179 4.61634 9.91828 4.35078 10.0536C4.08521 10.1889 3.77485 10.2565 3.41878 10.2565C3.17333 10.2565 2.95713 10.22 2.76926 10.1473ZM11.4813 14.8173V10.369H11.5412C11.6564 10.6144 11.8168 10.8489 12.022 11.0715C12.2277 11.2946 12.4855 11.476 12.7963 11.6164C13.1067 11.7567 13.4746 11.8266 13.9007 11.8266C14.5616 11.8266 15.1503 11.6589 15.6664 11.3234C16.1824 10.9879 16.5869 10.5006 16.8799 9.86206C17.1729 9.22306 17.3192 8.45059 17.3192 7.54373C17.3192 6.62727 17.1693 5.85069 16.8685 5.21488C16.5682 4.57862 16.1596 4.09639 15.644 3.76821C15.1279 3.44002 14.5515 3.27593 13.9157 3.27593C13.4746 3.27593 13.0989 3.34769 12.7886 3.4903C12.4777 3.63291 12.2213 3.81574 12.0184 4.0388C11.8154 4.26186 11.6541 4.48857 11.5339 4.71894H11.4438V3.39614H9.24204V14.8173H11.4813ZM12.2625 9.70802C11.9873 9.50234 11.778 9.21437 11.6353 8.84368C11.4923 8.47298 11.421 8.03967 11.421 7.54373C11.421 7.04322 11.4923 6.60853 11.6353 6.24012C11.778 5.87217 11.9859 5.58558 12.2588 5.37989C12.5317 5.17466 12.8585 5.07181 13.2393 5.07181C13.6301 5.07181 13.9569 5.17603 14.2202 5.38355C14.483 5.59152 14.6846 5.87948 14.8249 6.24789C14.9652 6.61585 15.0351 7.04779 15.0351 7.54373C15.0351 8.0351 14.9661 8.46567 14.8285 8.83636C14.691 9.20706 14.488 9.4964 14.2202 9.70391C13.9518 9.91189 13.625 10.0161 13.2393 10.0161C12.8635 10.0161 12.5381 9.91326 12.2625 9.70802ZM21.0463 14.8173V10.369H21.1061C21.2213 10.6144 21.3818 10.8489 21.587 11.0715C21.7927 11.2946 22.0505 11.476 22.3608 11.6164C22.6717 11.7567 23.0396 11.8266 23.4656 11.8266C24.1266 11.8266 24.7153 11.6589 25.2313 11.3234C25.7469 10.9879 26.1519 10.5006 26.4449 9.86206C26.7379 9.22306 26.8841 8.45059 26.8841 7.54373C26.8841 6.62727 26.7342 5.85069 26.4335 5.21488C26.1327 4.57862 25.7245 4.09639 25.2089 3.76821C24.6929 3.44002 24.1165 3.27593 23.4807 3.27593C23.0396 3.27593 22.6639 3.34769 22.3535 3.4903C22.0427 3.63291 21.7863 3.81574 21.5833 4.0388C21.3804 4.26186 21.219 4.48857 21.0988 4.71894H21.0088V3.39614H18.807V14.8173H21.0463ZM21.8274 9.70802C21.5523 9.50234 21.3429 9.21437 21.2003 8.84368C21.0572 8.47298 20.9859 8.03967 20.9859 7.54373C20.9859 7.04322 21.0572 6.60853 21.2003 6.24012C21.3429 5.87217 21.5509 5.58558 21.8238 5.37989C22.0966 5.17466 22.4235 5.07181 22.8042 5.07181C23.195 5.07181 23.5218 5.17603 23.7851 5.38355C24.0479 5.59152 24.2495 5.87948 24.3898 6.24789C24.5297 6.61585 24.6001 7.04779 24.6001 7.54373C24.6001 8.0351 24.5311 8.46567 24.3935 8.83636C24.2555 9.20706 24.053 9.4964 23.7851 9.70391C23.5168 9.91189 23.19 10.0161 22.8042 10.0161C22.4285 10.0161 22.103 9.91326 21.8274 9.70802ZM28.372 11.6762H30.6112V0.480853H28.372V11.6762ZM32.4441 11.6762H34.6834V3.39614H32.4441V11.6762ZM34.443 1.99106C34.6834 1.76572 34.8036 1.49055 34.8036 1.16465C34.8036 0.844236 34.6834 0.569985 34.443 0.341899C34.2025 0.114271 33.9095 0 33.564 0C33.2184 0 32.9241 0.114271 32.6809 0.341899C32.4382 0.569985 32.3166 0.844236 32.3166 1.16465C32.3166 1.49055 32.4382 1.76572 32.6809 1.99106C32.9241 2.21686 33.2184 2.3293 33.564 2.3293C33.9095 2.3293 34.2025 2.21686 34.443 1.99106ZM41.6411 11.6424C42.0717 11.5048 42.4515 11.306 42.7793 11.0455C43.1075 10.7849 43.373 10.4768 43.576 10.1212C43.7789 9.76562 43.9128 9.36201 43.9777 8.91133L41.8742 8.63342C41.834 8.85373 41.7677 9.05165 41.675 9.22717C41.5822 9.40224 41.467 9.55262 41.3294 9.67786C41.1914 9.8031 41.0337 9.89954 40.8559 9.96719C40.6781 10.0348 40.4815 10.0687 40.2662 10.0687C39.8754 10.0687 39.5436 9.96216 39.2707 9.74916C38.9974 9.53616 38.7921 9.24088 38.6545 8.86242C38.5165 8.48441 38.4479 8.05246 38.4479 7.56658C38.4479 7.06059 38.5165 6.6195 38.6545 6.24424C38.7921 5.86851 38.9964 5.57552 39.267 5.36481C39.5372 5.15455 39.8704 5.04942 40.2662 5.04942C40.4865 5.04942 40.6858 5.08324 40.8636 5.15089C41.0414 5.21854 41.1964 5.31224 41.3294 5.43245C41.462 5.55267 41.5735 5.69802 41.6635 5.86851C41.754 6.03855 41.8217 6.23144 41.8665 6.44672L43.9704 6.1615C43.9051 5.72087 43.7689 5.3223 43.5609 4.96668C43.3529 4.61107 43.0851 4.30802 42.7569 4.05754C42.4287 3.80706 42.053 3.61417 41.6297 3.47887C41.2064 3.34358 40.7443 3.27593 40.2438 3.27593C39.4069 3.27593 38.6847 3.4551 38.0759 3.81346C37.4675 4.17136 36.9962 4.67141 36.6635 5.31224C36.3303 5.95353 36.1639 6.70498 36.1639 7.56658C36.1639 8.41813 36.3303 9.16455 36.6635 9.80538C36.9962 10.4467 37.4675 10.9476 38.0759 11.3083C38.6847 11.6689 39.4069 11.8495 40.2438 11.8495C40.7443 11.8495 41.2101 11.7804 41.6411 11.6424ZM49.0308 11.6689C49.3439 11.5588 49.6109 11.4047 49.8312 11.2068C50.0515 11.0089 50.2293 10.7822 50.3646 10.5267H50.4249V11.6762H52.5737V6.08609C52.5737 5.60523 52.4795 5.187 52.2917 4.83139C52.1038 4.47578 51.8474 4.18415 51.5215 3.95607C51.196 3.72844 50.8217 3.55795 50.3984 3.44505C49.9752 3.33261 49.5231 3.27593 49.0423 3.27593C48.3909 3.27593 47.8136 3.37146 47.3104 3.56161C46.8066 3.75221 46.3934 4.02646 46.0707 4.38436C45.7476 4.74271 45.5282 5.17466 45.413 5.68065L47.4795 5.92108C47.5343 5.74053 47.6271 5.57552 47.7574 5.42514C47.8877 5.27476 48.0591 5.15729 48.2721 5.07181C48.4851 4.9868 48.7365 4.94429 49.0272 4.94429C49.3028 4.94429 49.5382 4.9868 49.7334 5.07181C49.929 5.15729 50.0775 5.27979 50.1804 5.44022C50.2832 5.60066 50.3344 5.79584 50.3344 6.02621V6.06369C50.3344 6.24424 50.2668 6.37908 50.1315 6.46958C49.9962 6.55963 49.7823 6.6259 49.4893 6.66841C49.1963 6.71138 48.8041 6.75983 48.3132 6.81514C47.8977 6.85536 47.5019 6.92392 47.1262 7.02174C46.7504 7.11955 46.4149 7.26216 46.1192 7.45003C45.8239 7.63789 45.5894 7.887 45.4167 8.19782C45.2439 8.50818 45.1575 8.89396 45.1575 9.3547C45.1575 9.90092 45.2791 10.358 45.5218 10.726C45.765 11.0939 46.0968 11.3709 46.5178 11.556C46.9383 11.7416 47.4141 11.8344 47.9452 11.8344C48.3557 11.8344 48.7177 11.7791 49.0308 11.6689ZM47.9265 10.1473C47.7386 10.0751 47.5905 9.96719 47.4831 9.82413C47.3753 9.68151 47.3213 9.50508 47.3213 9.29482C47.3213 9.06902 47.3789 8.8839 47.4946 8.73855C47.6097 8.5932 47.7711 8.4771 47.9791 8.38934C48.1866 8.30158 48.4261 8.23758 48.6967 8.19782C48.8366 8.17771 48.9869 8.15394 49.1474 8.12605L49.6282 8.04378C49.7887 8.0159 49.9327 7.98344 50.0602 7.94596C50.1882 7.90848 50.2846 7.8646 50.3495 7.81432V8.70107C50.3495 8.99177 50.2755 9.25597 50.1278 9.49365C49.9802 9.73179 49.7736 9.91828 49.508 10.0536C49.2425 10.1889 48.9321 10.2565 48.5765 10.2565C48.331 10.2565 48.1144 10.22 47.9265 10.1473ZM57.0819 5.12438H58.6675V3.39614H57.0819V1.36028H54.8427V3.39614H53.6332V5.12438H54.8427V9.45252C54.8427 10.209 55.0616 10.7835 55.5004 11.1766C55.9383 11.5702 56.581 11.7667 57.4275 11.7667C57.6578 11.7667 57.896 11.7553 58.1414 11.7329C58.3864 11.7101 58.6196 11.6717 58.8399 11.6164L58.6072 9.91051C58.5217 9.9256 58.3992 9.94205 58.2388 9.95942C58.0784 9.97725 57.9508 9.98593 57.8558 9.98593C57.5751 9.98593 57.3758 9.92468 57.2584 9.80173C57.1404 9.67923 57.0819 9.48497 57.0819 9.2194V5.12438ZM60.042 11.6762H62.2813V3.39614H60.042V11.6762ZM62.0408 1.99106C62.2813 1.76572 62.4015 1.49055 62.4015 1.16465C62.4015 0.844236 62.2813 0.569985 62.0408 0.341899C61.8004 0.114271 61.5074 0 61.1619 0C60.8163 0 60.5219 0.114271 60.2788 0.341899C60.0361 0.569985 59.9145 0.844236 59.9145 1.16465C59.9145 1.49055 60.0361 1.76572 60.2788 1.99106C60.5219 2.21686 60.8163 2.3293 61.1619 2.3293C61.5074 2.3293 61.8004 2.21686 62.0408 1.99106ZM70.0206 11.3119C70.6313 10.954 71.1035 10.4531 71.4367 9.8095C71.7699 9.16547 71.9363 8.41813 71.9363 7.56658C71.9363 6.70498 71.7699 5.95353 71.4367 5.31224C71.1035 4.67141 70.6313 4.17136 70.0206 3.81346C69.409 3.4551 68.6878 3.27593 67.8563 3.27593C67.0199 3.27593 66.2949 3.4551 65.6811 3.81346C65.0676 4.17136 64.5941 4.67141 64.2614 5.31224C63.9281 5.95353 63.7613 6.70498 63.7613 7.56658C63.7613 8.41813 63.9281 9.16547 64.2614 9.8095C64.5941 10.4531 65.0676 10.954 65.6811 11.3119C66.2949 11.6703 67.0199 11.8495 67.8563 11.8495C68.6878 11.8495 69.409 11.6703 70.0206 11.3119ZM66.8644 9.74916C66.5943 9.53616 66.39 9.23951 66.2524 8.85876C66.1144 8.47801 66.0458 8.04744 66.0458 7.56658C66.0458 7.06562 66.1144 6.62727 66.2524 6.25155C66.39 5.87583 66.5943 5.58283 66.8644 5.37258C67.135 5.16186 67.4655 5.05673 67.8563 5.05673C68.2421 5.05673 68.5703 5.16186 68.8409 5.37258C69.1115 5.58283 69.3167 5.87583 69.457 6.25155C69.5969 6.62727 69.6673 7.06562 69.6673 7.56658C69.6673 8.04744 69.5969 8.47801 69.457 8.85876C69.3167 9.23951 69.1115 9.53616 68.8409 9.74916C68.5703 9.96216 68.2421 10.0687 67.8563 10.0687C67.4655 10.0687 67.135 9.96216 66.8644 9.74916ZM75.8585 5.96587C75.9938 5.70579 76.1853 5.50787 76.4335 5.37258C76.6813 5.23728 76.9605 5.16963 77.2714 5.16963C77.7417 5.16963 78.1087 5.31498 78.372 5.60523C78.6348 5.89594 78.7665 6.30183 78.7665 6.82245V11.6762H81.013V6.4321C81.013 5.77572 80.8951 5.21077 80.6597 4.73768C80.4243 4.26414 80.0911 3.90213 79.6605 3.65165C79.2295 3.40117 78.729 3.27593 78.1576 3.27593C77.4464 3.27593 76.8641 3.47019 76.4107 3.85825C75.9572 4.24678 75.613 4.78888 75.3776 5.48502H75.5806L75.5582 3.39614H73.4168V11.6762H75.6556V6.93535C75.6556 6.54957 75.7232 6.22641 75.8585 5.96587ZM88.0869 11.5112C88.6404 11.2859 89.0751 10.9678 89.3905 10.5568C89.7064 10.1464 89.864 9.67009 89.864 9.12936C89.864 8.52829 89.6689 8.04378 89.2781 7.67537C88.8873 7.30742 88.2885 7.04322 87.4822 6.88278L85.9647 6.58202C85.594 6.51209 85.327 6.40559 85.1643 6.26298C85.0016 6.11991 84.9202 5.94347 84.9202 5.73322C84.9202 5.47771 85.0404 5.27247 85.2809 5.11707C85.5213 4.96166 85.8266 4.88395 86.1973 4.88395C86.6082 4.88395 86.935 4.97948 87.1778 5.16963C87.4209 5.35978 87.575 5.60066 87.6399 5.89091L89.6538 5.62809C89.5784 5.15226 89.3905 4.73631 89.0902 4.3807C88.7894 4.02509 88.3927 3.75221 87.899 3.56161C87.4058 3.37146 86.8285 3.27593 86.1671 3.27593C85.4559 3.27593 84.8411 3.38151 84.3228 3.59177C83.8045 3.80203 83.3995 4.10005 83.1092 4.48583C82.8185 4.87161 82.6736 5.33007 82.6736 5.86074C82.6736 6.47689 82.8752 6.98426 83.2784 7.38238C83.6815 7.7805 84.2812 8.05978 85.0779 8.22021L86.5132 8.51321C86.8688 8.5836 87.1352 8.68736 87.313 8.82494C87.4909 8.96298 87.58 9.13941 87.58 9.3547C87.58 9.60518 87.4584 9.81041 87.2157 9.97085C86.9725 10.1313 86.6379 10.2113 86.2124 10.2113C85.7567 10.2113 85.3947 10.1135 85.1268 9.91828C84.8585 9.72265 84.6798 9.43743 84.5893 9.06171L82.4707 9.32453C82.5507 9.85566 82.7559 10.31 83.0868 10.6885C83.4173 11.0665 83.8442 11.3544 84.3676 11.5524C84.8914 11.7503 85.4911 11.8495 86.1671 11.8495C86.8934 11.8495 87.5334 11.7366 88.0869 11.5112Z"
          fill="#0068B3"/>
    <path fill-rule="evenodd" clip-rule="evenodd"
          d="M2.19425 29.2625C2.72036 29.2625 3.16967 29.1784 3.54311 29.0106C3.91609 28.8429 4.23056 28.5997 4.48607 28.2816C4.74159 27.9634 4.95413 27.579 5.12462 27.1284L8.67114 17.7965H6.32676L4.8842 22.0415C4.7137 22.5676 4.55967 23.0959 4.42208 23.6271C4.2845 24.1582 4.42486 23.5525 4.29505 24.1133C4.29505 24.1133 4.3069 24.1582 4.18897 23.6271C4.0715 23.0959 3.93255 22.5676 3.77211 22.0415L2.3748 17.7965H0.000244141L3.12579 26.0839L3.02843 26.5725C2.98821 26.8326 2.90548 27.0356 2.78023 27.1809C2.65499 27.3263 2.4909 27.4191 2.28841 27.4588C2.08547 27.499 1.85098 27.4917 1.58587 27.4364L1.10502 27.3839L0.721524 29.0897C0.9071 29.1446 1.12833 29.1871 1.38658 29.2172C1.64438 29.2474 1.9136 29.2625 2.19425 29.2625ZM15.4182 25.7123C16.0293 25.3539 16.5015 24.853 16.8347 24.2094C17.1679 23.5658 17.3343 22.818 17.3343 21.9665C17.3343 21.1049 17.1679 20.3534 16.8347 19.7126C16.5015 19.0713 16.0293 18.5717 15.4182 18.2134C14.8071 17.8555 14.0858 17.6763 13.2543 17.6763C12.4179 17.6763 11.6929 17.8555 11.0791 18.2134C10.4657 18.5717 9.99212 19.0713 9.65936 19.7126C9.32615 20.3534 9.15931 21.1049 9.15931 21.9665C9.15931 22.818 9.32615 23.5658 9.65936 24.2094C9.99212 24.853 10.4657 25.3539 11.0791 25.7123C11.6929 26.0702 12.4179 26.2494 13.2543 26.2494C14.0858 26.2494 14.8071 26.0702 15.4182 25.7123ZM12.2625 24.1491C11.9923 23.9365 11.788 23.6394 11.6504 23.2587C11.5124 22.8784 11.4438 22.4473 11.4438 21.9665C11.4438 21.4655 11.5124 21.0272 11.6504 20.6515C11.788 20.2757 11.9923 19.9827 12.2625 19.7725C12.5331 19.5622 12.8635 19.4571 13.2543 19.4571C13.6401 19.4571 13.9683 19.5622 14.2389 19.7725C14.509 19.9827 14.7147 20.2757 14.855 20.6515C14.9949 21.0272 15.0653 21.4655 15.0653 21.9665C15.0653 22.4473 14.9949 22.8784 14.855 23.2587C14.7147 23.6394 14.509 23.9365 14.2389 24.1491C13.9683 24.3621 13.6401 24.4686 13.2543 24.4686C12.8635 24.4686 12.5331 24.3621 12.2625 24.1491ZM23.4167 25.6255C23.8752 25.2401 24.2171 24.6939 24.4424 23.9877H24.2545L24.2769 26.0766H26.4184V17.7965H24.1645V22.5452C24.1645 22.9259 24.0968 23.2463 23.9615 23.5069C23.8263 23.7674 23.637 23.9653 23.3943 24.1006C23.1511 24.2355 22.8719 24.3031 22.5565 24.3031C22.0907 24.3031 21.7237 24.1582 21.4558 23.8675C21.1875 23.5768 21.0536 23.1714 21.0536 22.6503V17.7965H18.8148V23.0411C18.8148 23.702 18.9322 24.2693 19.1676 24.7428C19.403 25.2164 19.7363 25.5779 20.1673 25.8284C20.5979 26.0789 21.1011 26.2041 21.6775 26.2041C22.3787 26.2041 22.9582 26.0117 23.4167 25.6255Z"
          fill="#9A6148"/>
    <path fill-rule="evenodd" clip-rule="evenodd"
          d="M29.2941 39.3276C28.8558 38.9345 28.6368 38.3595 28.6368 37.603V33.2754H27.4269V31.5471H28.6368V29.5108H30.8756V31.5471H32.4613V33.2754H30.8756V37.3704C30.8756 37.636 30.9346 37.8298 31.0525 37.9527C31.17 38.0752 31.3693 38.1365 31.6499 38.1365C31.745 38.1365 31.8725 38.1278 32.033 38.1104C32.1934 38.093 32.3159 38.0766 32.4009 38.0615L32.634 39.7669C32.4137 39.8222 32.1806 39.861 31.9351 39.8834C31.6897 39.9063 31.452 39.9173 31.2216 39.9173C30.3747 39.9173 29.7325 39.7207 29.2941 39.3276ZM5.47771 39.7934C5.90828 39.6558 6.28812 39.4565 6.61585 39.196C6.94403 38.9355 7.2096 38.6274 7.41255 38.2718C7.61549 37.9162 7.74942 37.513 7.81432 37.0623L5.71082 36.784C5.67059 37.0047 5.60432 37.2026 5.51153 37.3777C5.41874 37.5532 5.30356 37.7036 5.16597 37.8284C5.02793 37.9536 4.87024 38.0501 4.69243 38.1177C4.51463 38.1854 4.31808 38.2192 4.10279 38.2192C3.71199 38.2192 3.38014 38.1127 3.10726 37.9002C2.83393 37.6872 2.6287 37.3914 2.49111 37.0134C2.35307 36.6354 2.28451 36.203 2.28451 35.7171C2.28451 35.2111 2.35307 34.7705 2.49111 34.3948C2.6287 34.019 2.83301 33.7261 3.10361 33.5158C3.37374 33.3055 3.70696 33.1999 4.10279 33.1999C4.32311 33.1999 4.5224 33.2338 4.7002 33.3014C4.87801 33.3691 5.03296 33.4632 5.16597 33.5834C5.29853 33.7037 5.41006 33.849 5.5001 34.019C5.5906 34.1895 5.65825 34.3824 5.70305 34.5977L7.80701 34.312C7.74165 33.8714 7.60543 33.4733 7.39746 33.1177C7.18949 32.7621 6.92164 32.459 6.59345 32.2085C6.26526 31.9581 5.88954 31.7652 5.46628 31.6299C5.04302 31.4946 4.5809 31.4269 4.0804 31.4269C3.24347 31.4269 2.52128 31.6061 1.91244 31.964C1.30406 32.3223 0.832809 32.8219 0.500051 33.4632C0.166836 34.1045 0 34.8555 0 35.7171C0 36.5687 0.166836 37.3151 0.500051 37.9564C0.832809 38.5977 1.30406 39.0982 1.91244 39.4588C2.52128 39.8199 3.24347 40 4.0804 40C4.5809 40 5.04667 39.931 5.47771 39.7934ZM15.3677 39.4629C15.9788 39.1046 16.4505 38.6036 16.7837 37.96C17.1169 37.3165 17.2838 36.5687 17.2838 35.7171C17.2838 34.8555 17.1169 34.1045 16.7837 33.4632C16.4505 32.8219 15.9788 32.3223 15.3677 31.964C14.7565 31.6061 14.0352 31.4269 13.2038 31.4269C12.3669 31.4269 11.642 31.6061 11.0285 31.964C10.4147 32.3223 9.9416 32.8219 9.60838 33.4632C9.27517 34.1045 9.10879 34.8555 9.10879 35.7171C9.10879 36.5687 9.27517 37.3165 9.60838 37.96C9.9416 38.6036 10.4147 39.1046 11.0285 39.4629C11.642 39.8208 12.3669 40 13.2038 40C14.0352 40 14.7565 39.8208 15.3677 39.4629ZM12.2119 37.9002C11.9413 37.6872 11.737 37.3905 11.5994 37.0098C11.4614 36.629 11.3928 36.198 11.3928 35.7171C11.3928 35.2166 11.4614 34.7778 11.5994 34.4025C11.737 34.0268 11.9413 33.7338 12.2119 33.5231C12.4821 33.3128 12.813 33.2077 13.2038 33.2077C13.5891 33.2077 13.9173 33.3128 14.1879 33.5231C14.4585 33.7338 14.6637 34.0268 14.8041 34.4025C14.9444 34.7778 15.0143 35.2166 15.0143 35.7171C15.0143 36.198 14.9444 36.629 14.8041 37.0098C14.6637 37.3905 14.4585 37.6872 14.1879 37.9002C13.9173 38.1127 13.5891 38.2192 13.2038 38.2192C12.813 38.2192 12.4821 38.1127 12.2119 37.9002ZM21.2055 34.1169C21.3408 33.8563 21.5324 33.6584 21.7806 33.5231C22.0283 33.3878 22.3076 33.3202 22.6184 33.3202C23.0892 33.3202 23.4562 33.4655 23.719 33.7562C23.9819 34.0469 24.1135 34.4524 24.1135 34.9734V39.8272H26.3601V34.5826C26.3601 33.9267 26.2422 33.3618 26.0068 32.8882C25.7714 32.4151 25.4381 32.0531 25.0076 31.8026C24.5765 31.5522 24.076 31.4269 23.5047 31.4269C22.7935 31.4269 22.2111 31.6212 21.7582 32.0092C21.4184 32.3 21.1397 32.6775 20.9223 33.1414L20.9052 31.5471H18.7638V39.8272H21.0031V35.0859C21.0031 34.7006 21.0702 34.3774 21.2055 34.1169ZM20.9223 33.1414L20.9276 33.636H20.7247C20.7837 33.4615 20.8496 33.2966 20.9223 33.1414ZM36.0754 39.8272V35.1764C36.0754 34.8107 36.1504 34.4949 36.3008 34.2293C36.4511 33.9642 36.6587 33.7599 36.9242 33.6173C37.1898 33.4742 37.4878 33.4029 37.8183 33.4029C37.9938 33.4029 38.1753 33.4107 38.3631 33.4257C38.551 33.4404 38.6927 33.4632 38.7878 33.4929V31.5096C38.6877 31.4946 38.5748 31.4809 38.4495 31.4681C38.3243 31.4557 38.2018 31.4493 38.0816 31.4493C37.5957 31.4493 37.1784 31.5787 36.8305 31.8365C36.4822 32.0943 36.2281 32.4787 36.0677 32.9897H36V31.5471H33.8362V39.8272H36.0754ZM45.58 39.4629C46.1912 39.1046 46.6633 38.6036 46.9966 37.96C47.3293 37.3165 47.4961 36.5687 47.4961 35.7171C47.4961 34.8555 47.3293 34.1045 46.9966 33.4632C46.6633 32.8219 46.1912 32.3223 45.58 31.964C44.9689 31.6061 44.2476 31.4269 43.4162 31.4269C42.5797 31.4269 41.8543 31.6061 41.2409 31.964C40.6271 32.3223 40.154 32.8219 39.8208 33.4632C39.4876 34.1045 39.3212 34.8555 39.3212 35.7171C39.3212 36.5687 39.4876 37.3165 39.8208 37.96C40.154 38.6036 40.6271 39.1046 41.2409 39.4629C41.8543 39.8208 42.5797 40 43.4162 40C44.2476 40 44.9689 39.8208 45.58 39.4629ZM42.4243 37.9002C42.1537 37.6872 41.9499 37.3905 41.8118 37.0098C41.6743 36.629 41.6052 36.198 41.6052 35.7171C41.6052 35.2166 41.6743 34.7778 41.8118 34.4025C41.9499 34.0268 42.1537 33.7338 42.4243 33.5231C42.6949 33.3128 43.0254 33.2077 43.4162 33.2077C43.802 33.2077 44.1302 33.3128 44.4003 33.5231C44.6709 33.7338 44.8761 34.0268 45.0165 34.4025C45.1568 34.7778 45.2272 35.2166 45.2272 35.7171C45.2272 36.198 45.1568 36.629 45.0165 37.0098C44.8761 37.3905 44.6709 37.6872 44.4003 37.9002C44.1302 38.1127 43.802 38.2192 43.4162 38.2192C43.0254 38.2192 42.6949 38.1127 42.4243 37.9002ZM48.9762 39.8272H51.2154V28.6318H48.9762V39.8272Z"
          fill="#DAC662"/>
</svg>
