<svg xmlns="http://www.w3.org/2000/svg" width="114" height="40" viewBox="0 0 114 40" fill="none">
    <path fill-rule="evenodd" clip-rule="evenodd"
          d="M113.488 18.4037C113.488 16.8516 113.146 15.5105 112.462 14.3802C111.778 13.2504 110.806 12.3771 109.545 11.7611C108.284 11.1451 106.79 10.8372 105.063 10.8372H95.8522V32.5183H101.906V25.9702H102.55H102.912H105.063C106.79 25.9702 108.284 25.6623 109.545 25.0463C110.806 24.4302 111.778 23.5548 112.462 22.4199C113.146 21.2847 113.488 19.946 113.488 18.4037ZM107.58 18.4037C107.58 18.9274 107.459 19.3836 107.217 19.7715C106.974 20.1595 106.632 20.4603 106.191 20.6735C105.749 20.8872 105.223 20.9938 104.612 20.9938H102.912H102.55H101.906V15.8135H104.612C105.223 15.8135 105.749 15.9204 106.191 16.1336C106.632 16.3473 106.974 16.6454 107.217 17.0285C107.459 17.4119 107.58 17.8702 107.58 18.4037ZM92.7528 27.4108C93.6551 25.7908 94.1061 23.8846 94.1061 21.6921C94.1061 19.4902 93.65 17.5766 92.7382 15.9518C91.8262 14.3272 90.5412 13.0683 88.8822 12.1758C87.2235 11.2833 85.2783 10.8372 83.0472 10.8372H80.7192H77.1104H74.6658V32.5183H77.1978H80.7192H83.1346C85.3657 32.5183 87.3009 32.0722 88.9404 31.1794C90.5799 30.2872 91.8506 29.0311 92.7528 27.4108ZM87.9946 21.6921C87.9946 23.0018 87.8103 24.0883 87.4416 24.9516C87.0728 25.8151 86.5104 26.4577 85.7537 26.8797C84.9972 27.3018 84.0271 27.5128 82.8435 27.5128H80.7192V15.8427H82.669C83.8913 15.8427 84.8952 16.0538 85.6809 16.4755C86.4668 16.8976 87.0488 17.5404 87.4272 18.4037C87.8055 19.2672 87.9946 20.3632 87.9946 21.6921ZM66.2844 32.5183H72.3378V10.8372H66.2844V32.5183ZM47.4553 32.5183H64.2473V27.3962H53.5084V24.1659H63.4178V19.2185H53.5084V15.9591H64.2473V10.8372H47.4553V32.5183Z"
          fill="#2b2e34"></path>
    <path d="M16.9037 35.0869C17.0453 35.0869 17.1893 35.0996 17.3334 35.125C18.6689 35.3605 19.5606 36.6341 19.3256 37.9697C19.0899 39.3054 17.8155 40.1978 16.4799 39.9619C15.1441 39.7264 14.2524 38.4527 14.4877 37.1172C14.6976 35.9257 15.7344 35.0869 16.9037 35.0869ZM30.2162 32.1367C30.99 32.1368 31.7524 32.5015 32.2299 33.1836C33.0079 34.2947 32.7375 35.8267 31.6263 36.6045C30.5152 37.3824 28.9842 37.112 28.2064 36.001C27.4281 34.8899 27.6982 33.3589 28.809 32.5811C29.2378 32.2808 29.7295 32.1367 30.2162 32.1367ZM5.40466 27.7617C6.17895 27.7617 6.94154 28.1273 7.41931 28.8096C8.19723 29.9206 7.92674 31.4518 6.8158 32.2295C5.70481 33.0075 4.17376 32.7378 3.39587 31.627C2.61784 30.5159 2.88746 28.9842 3.99841 28.2061C4.42685 27.9058 4.91834 27.7618 5.40466 27.7617ZM34.3802 18.0518C32.5708 19.2091 31.1625 20.4912 31.1508 20.502C17.6042 32.9019 11.614 26.9436 9.80408 24.1768C19.3865 19.8474 28.3818 18.4497 34.3802 18.0518ZM37.5404 20.6367C37.6819 20.6367 37.8259 20.6494 37.9701 20.6748C39.3056 20.9105 40.1975 22.184 39.9623 23.5195C39.7266 24.8555 38.4525 25.7471 37.1166 25.5117C35.7812 25.2759 34.8898 24.0025 35.1254 22.667C35.3356 21.4754 36.371 20.6369 37.5404 20.6367ZM22.5941 14.4365C29.448 14.4363 35.2689 17.1035 35.2689 17.1035C29.0392 17.5575 17.2631 18.5617 5.05994 24.8359C9.40538 16.603 16.4193 14.4371 22.5941 14.4365ZM2.45349 14.4502C2.59495 14.4502 2.73901 14.4629 2.88318 14.4883C4.21885 14.7239 5.11 15.9975 4.87439 17.333C4.639 18.6689 3.36558 19.5606 2.02966 19.3252C0.694205 19.0895 -0.197862 17.8162 0.0374756 16.4805C0.247416 15.289 1.28394 14.4502 2.45349 14.4502ZM37.9388 16.3848C37.9072 16.3923 37.8741 16.405 37.8422 16.4131C37.8286 16.4082 37.8147 16.4023 37.8011 16.3975C37.8899 16.3888 37.9388 16.3848 37.9388 16.3848ZM34.5902 7.32617C35.3643 7.32617 36.1261 7.69109 36.6039 8.37305C37.3819 9.48409 37.1123 11.0161 36.0013 11.7939C34.8905 12.572 33.3585 12.3021 32.5804 11.1914C31.8024 10.08 32.0728 8.54831 33.184 7.77051C33.6127 7.47027 34.1039 7.32622 34.5902 7.32617ZM9.77966 2.95117C10.5537 2.95117 11.3165 3.31672 11.7943 3.99902C12.5721 5.10982 12.3018 6.64093 11.1908 7.41895C10.0797 8.19701 8.54772 7.92747 7.7699 6.81641C6.99182 5.70529 7.2623 4.17358 8.37341 3.39551C8.80213 3.09528 9.29333 2.95095 9.77966 2.95117ZM23.0902 0C23.2317 0 23.3754 0.0126551 23.5199 0.0380859C24.8555 0.273761 25.7477 1.54695 25.5121 2.88281C25.2767 4.21831 24.0028 5.11034 22.6674 4.875C21.3315 4.63938 20.4397 3.36608 20.6752 2.03027C20.8851 0.838831 21.9207 -0.000240209 23.0902 0Z"
          fill="url(#paint0_linear_1403_4008)"></path>
    <defs>
        <linearGradient id="paint0_linear_1403_4008" x1="0.000366211" y1="39.9997" x2="39.9995" y2="39.9997"
                        gradientUnits="userSpaceOnUse">
            <stop stop-color="#0068B3"></stop>
            <stop offset="0.498486" stop-color="#9A6148"></stop>
            <stop offset="1" stop-color="#DAC662"></stop>
        </linearGradient>
    </defs>
</svg>